<svg width="36" height="37" viewBox="0 0 36 37" fill="none" xmlns="http://www.w3.org/2000/svg">
<path d="M18.0013 0C13.1128 0 12.4993 0.0219691 10.5792 0.111771C8.66296 0.201959 7.35495 0.513761 6.21044 0.97125C5.02655 1.44377 4.02229 2.07585 3.02178 3.10453C2.02052 4.13282 1.40551 5.16497 0.94426 6.38134C0.498005 7.55802 0.194252 8.90274 0.108001 10.8714C0.0225003 12.8448 0 13.4757 0 18.5C0 23.5243 0.0217506 24.1529 0.108751 26.1262C0.196877 28.0957 0.500255 29.4401 0.94501 30.6163C1.40514 31.8331 2.02015 32.8653 3.02103 33.8935C4.02117 34.9226 5.02543 35.5562 6.20856 36.0288C7.35383 36.4862 8.66222 36.798 10.5781 36.8882C12.4981 36.978 13.1113 37 17.9994 37C22.8884 37 23.5 36.978 25.42 36.8882C27.3363 36.798 28.6458 36.4862 29.7911 36.0288C30.9746 35.5562 31.9773 34.9226 32.9775 33.8935C33.9787 32.8653 34.5937 31.8331 35.055 30.6167C35.4975 29.4401 35.8013 28.0953 35.8913 26.1266C35.9775 24.1533 36 23.5243 36 18.5C36 13.4757 35.9775 12.8452 35.8913 10.8718C35.8013 8.90235 35.4975 7.55802 35.055 6.38173C34.5937 5.16497 33.9787 4.13282 32.9775 3.10453C31.9762 2.07547 30.975 1.44339 29.7899 0.97125C28.6424 0.513761 27.3337 0.201959 25.4174 0.111771C23.4974 0.0219691 22.8861 0 17.9961 0L18.0013 0ZM16.3865 3.33385C16.8658 3.33308 17.4006 3.33385 18.0013 3.33385C22.8074 3.33385 23.377 3.35158 25.2749 3.44023C27.0299 3.52271 27.9824 3.8241 28.6169 4.07732C29.4569 4.41264 30.0558 4.81347 30.6854 5.46097C31.3155 6.10847 31.7055 6.72514 32.0325 7.58847C32.2788 8.23982 32.5725 9.21878 32.6523 11.0225C32.7386 12.9727 32.7573 13.5586 32.7573 18.4958C32.7573 23.4329 32.7386 24.0188 32.6523 25.969C32.5721 27.7727 32.2788 28.7517 32.0325 29.4031C31.7062 30.2664 31.3155 30.8811 30.6854 31.5282C30.0554 32.1757 29.4573 32.5766 28.6169 32.9119C27.9832 33.1663 27.0299 33.4669 25.2749 33.5494C23.3774 33.638 22.8074 33.6573 18.0013 33.6573C13.1949 33.6573 12.6253 33.638 10.7277 33.5494C8.97272 33.4661 8.02021 33.1647 7.38533 32.9115C6.54532 32.5762 5.94531 32.1754 5.31531 31.5279C4.6853 30.8804 4.2953 30.2652 3.96829 29.4015C3.72191 28.7502 3.42829 27.7712 3.34841 25.9674C3.26216 24.0172 3.24491 23.4314 3.24491 18.4911C3.24491 13.5509 3.26216 12.9681 3.34841 11.0179C3.42866 9.21416 3.72191 8.2352 3.96829 7.58307C4.29455 6.71974 4.6853 6.10307 5.31531 5.45557C5.94531 4.80807 6.54532 4.40724 7.38533 4.07116C8.01983 3.81678 8.97272 3.51616 10.7277 3.43329C12.3883 3.35621 13.0318 3.33308 16.3865 3.32923V3.33385Z" fill="#A42828"/>
<path d="M27.571 6.36018C27.1437 6.36018 26.7261 6.4904 26.3708 6.73437C26.0156 6.97834 25.7388 7.3251 25.5753 7.7308C25.4118 8.1365 25.3691 8.58291 25.4525 9.01357C25.5359 9.44422 25.7417 9.83979 26.0439 10.1502C26.346 10.4607 26.731 10.672 27.15 10.7576C27.5691 10.8432 28.0034 10.7991 28.3981 10.631C28.7928 10.4628 29.1301 10.1782 29.3673 9.81299C29.6046 9.44781 29.7311 9.01852 29.731 8.57941C29.731 7.35378 28.7635 6.36018 27.571 6.36018Z" fill="#A42828"/>
<path fill-rule="evenodd" clip-rule="evenodd" d="M17.9626 8.95403C12.8577 8.95403 8.71876 13.2079 8.71876 18.4546C8.71876 23.7012 12.8577 27.9531 17.9626 27.9531C23.0675 27.9531 27.2053 23.7012 27.2053 18.4546C27.2053 13.2079 23.0675 8.95403 17.9626 8.95403ZM18 24.5703C21.2619 24.5703 23.9063 21.8526 23.9063 18.5C23.9063 15.1475 21.2619 12.4297 18 12.4297C14.7381 12.4297 12.0938 15.1475 12.0938 18.5C12.0938 21.8526 14.7381 24.5703 18 24.5703Z" fill="#A42828"/>
</svg>
